<svg width="11" height="11" viewBox="0 0 11 11" fill="none" xmlns="http://www.w3.org/2000/svg">
<path fill-rule="evenodd" clip-rule="evenodd" d="M1.08224 3.152L1.37003 2.86284L5.68336 7.2099L9.99701 2.86255L10.5852 3.45534L8.13429 5.92551L5.68339 8.39569L3.23894 5.9321C1.89447 4.57713 0.79447 3.46232 0.79447 3.45481C0.79447 3.44728 0.923961 3.31102 1.08224 3.152Z" fill="#BF0F80"/>
<path fill-rule="evenodd" clip-rule="evenodd" d="M1.37003 2.86284L1.08224 3.152C0.923961 3.31102 0.79447 3.44728 0.79447 3.45481C0.79447 3.46232 1.89447 4.57713 3.23894 5.9321L5.68339 8.39569L8.13429 5.92551L10.5852 3.45534L9.99701 2.86255L5.68336 7.2099L1.37003 2.86284ZM5.68336 6.79181L9.99701 2.44446L11 3.45534L8.34171 6.13457L5.68339 8.81378L3.03153 6.14116C3.03153 6.14116 3.03153 6.14116 3.03153 6.14116C2.35916 5.46354 1.74784 4.84589 1.30454 4.39663C1.08293 4.17204 0.903111 3.98934 0.778596 3.86221C0.716412 3.79872 0.667628 3.74869 0.634211 3.7141C0.617641 3.69695 0.604087 3.68281 0.594342 3.67246C0.58972 3.66755 0.584516 3.66197 0.579873 3.65678C0.577949 3.65463 0.573545 3.64969 0.56865 3.64369C0.566695 3.64129 0.560797 3.63403 0.554087 3.62434C0.551081 3.61999 0.543733 3.6092 0.535939 3.59454C0.532054 3.58697 0.52346 3.56797 0.518997 3.55642C0.51301 3.53809 0.502913 3.48732 0.501137 3.45481C0.501137 3.3768 0.533221 3.31977 0.534615 3.31729C0.534612 3.3173 0.534642 3.31725 0.534615 3.31729C0.54265 3.30174 0.550463 3.28999 0.554045 3.28472C0.561851 3.27325 0.569264 3.26395 0.573028 3.25931C0.581543 3.24878 0.591087 3.2379 0.599418 3.2286C0.61691 3.20907 0.640363 3.18392 0.667161 3.15572C0.721286 3.09876 0.794879 3.02327 0.875138 2.94263C0.875136 2.94263 0.87514 2.94263 0.875138 2.94263L1.37034 2.44507L5.68336 6.79181Z" fill="#BF0F80"/>
</svg>
